<?xml version="1.0" encoding="utf-8"?>
<!-- Generator: Adobe Illustrator 25.3.0, SVG Export Plug-In . SVG Version: 6.00 Build 0)  -->
<svg version="1.1" id="Layer_1" xmlns="http://www.w3.org/2000/svg" xmlns:xlink="http://www.w3.org/1999/xlink" x="0px" y="0px"
	 viewBox="0 0 100 105.5" style="enable-background:new 0 0 100 105.5;" xml:space="preserve">
<style type="text/css">
	.st0{fill:#FFFFFF;}
	.st1{fill:#5ABB66;}
</style>
<g>
	<path class="st0" d="M94.5,46.2L94.5,46.2c-0.5-0.8-2.1-0.3-3.3,0.5c-0.4,0.3-0.7,0.6-1.1,0.9c-0.4-0.3-0.8-0.6-1.2-0.8
		c-0.6-0.3-1.3-0.6-2-0.7c-0.9-0.1-1.2,0.1-1.4,0.4c-0.1,0.3-0.2,0.7,0.4,1.4c0.5,0.5,1,0.9,1.7,1.3c0.7,0.4,1.4,0.6,2.2,0.7h0.3
		c0.9-0.1,1.7-0.4,2.5-0.9c0.6-0.4,1.2-0.8,1.6-1.3C94.7,46.9,94.6,46.5,94.5,46.2z M86.4,47.3C86,46.9,86,46.7,86,46.7s0,0,0.3,0
		c0.1,0,0.2,0,0.4,0c0.6,0.1,1.2,0.3,1.8,0.7c0.4,0.2,0.7,0.4,1.1,0.7l0,0l0,0l0,0l0,0l0,0l0,0l0,0l0,0l0,0v0.4l0,0
		c-0.4-0.1-0.8-0.3-1.2-0.5C87.7,47.8,87,47.6,86.4,47.3z M93.6,47.2c-0.4,0.5-0.9,0.9-1.4,1.2c-0.4,0.2-0.8,0.4-1.2,0.6v-0.3l0,0
		l0,0l0,0l0,0l0,0l0,0l0,0l0,0l0,0l0,0c0.3-0.3,0.7-0.5,1-0.7c1.4-0.8,2.3-0.9,2.4-0.7C94.5,47.2,93.9,46.8,93.6,47.2z"/>
	<path class="st0" d="M18,74.3c-0.5-0.8-2-0.3-3.3,0.5c-0.4,0.3-0.8,0.5-1.1,0.9c-0.4-0.3-0.8-0.6-1.2-0.8c-0.6-0.3-1.3-0.6-2-0.7
		c-0.9-0.1-1.2,0.1-1.4,0.4c-0.1,0.2-0.2,0.7,0.4,1.4c0.5,0.5,1.1,0.9,1.7,1.2c0.7,0.4,1.4,0.7,2.2,0.8h0.4c0.9-0.1,1.7-0.4,2.5-0.9
		c0.6-0.4,1.1-0.8,1.6-1.3C18.2,74.9,18.1,74.5,18,74.3z M9.9,75.4c-0.3-0.4-0.3-0.6-0.3-0.6s0.1,0,0.3,0h0.4
		c0.6,0.1,1.2,0.3,1.8,0.7c0.4,0.2,0.7,0.4,1.1,0.7l0,0l0,0l0,0l0,0l0,0l0,0l0,0l0,0l0,0l0,0l0,0v0.2l0,0c-0.4-0.1-0.8-0.3-1.2-0.5
		C11.2,75.8,10.5,75.6,9.9,75.4L9.9,75.4z M17.2,75.2c-0.4,0.5-0.9,0.9-1.4,1.2c-0.4,0.2-0.8,0.4-1.2,0.6v-0.2l0,0v-0.1l0,0l0,0l0,0
		l0,0l0,0l0,0l0,0l0,0l0,0c0.3-0.3,0.7-0.5,1-0.7c1.4-0.8,2.3-0.9,2.4-0.7S17.4,74.8,17.2,75.2z"/>
	<path class="st0" d="M74.1,67.6h-0.7c-0.1,0-0.2-0.1-0.2-0.2s0.1-0.2,0.2-0.2l0,0c0.4,0,0.9,0,1.3,0l0,0c0.1,0,0.2,0.1,0.2,0.2
		s-0.1,0.3-0.2,0.3L74.1,67.6z M77.3,67.4c-0.1,0-0.2-0.1-0.2-0.2s0.1-0.3,0.2-0.3l0,0c0.4,0,0.9-0.2,1.3-0.3c0.1,0,0.3,0.1,0.3,0.2
		s0,0.3-0.2,0.3L77.3,67.4L77.3,67.4z M70.6,67.4L70.6,67.4l-1.3-0.2c-0.1,0-0.2-0.2-0.2-0.3l0,0c0-0.1,0.2-0.2,0.3-0.2l0,0l1.3,0.2
		c0.1,0,0.2,0.1,0.2,0.2l0,0C70.9,67.3,70.8,67.4,70.6,67.4L70.6,67.4z M66.7,66.4L66.7,66.4c-0.4-0.1-0.9-0.3-1.3-0.5
		c-0.1,0-0.2-0.2-0.1-0.3c0.1-0.1,0.2-0.2,0.3-0.1c0.4,0.2,0.8,0.3,1.2,0.4c0.1,0,0.2,0.1,0.2,0.2s-0.1,0.2-0.2,0.2L66.7,66.4z
		 M81.2,66.2c-0.1,0-0.2,0-0.2-0.1c-0.1-0.1,0-0.3,0.1-0.3l0,0c0.4-0.2,0.8-0.4,1.2-0.6c0.1-0.1,0.3,0,0.3,0.1s0,0.3-0.1,0.3
		c-0.4,0.2-0.8,0.4-1.2,0.6H81.2z M63,64.8L63,64.8l-1.3-0.7c-0.1-0.1-0.1-0.2,0-0.3s0.2-0.1,0.3,0l0,0c0.4,0.2,0.8,0.4,1.2,0.7
		c0.1,0.1,0.2,0.2,0.1,0.3l0,0C63.2,64.9,63.1,64.9,63,64.8L63,64.8z M84.7,64.1c-0.1,0-0.1,0-0.2,0c-0.1-0.1-0.1-0.3,0-0.4l0,0
		c0.3-0.3,0.7-0.6,1-0.9c0.1-0.1,0.2-0.1,0.3,0l0,0c0.1,0.1,0.1,0.3,0,0.4c-0.3,0.3-0.7,0.6-1,0.9H84.7z M87.4,61.1L87.4,61.1
		c-0.2-0.1-0.2-0.2-0.1-0.3l0,0c0.2-0.4,0.5-0.7,0.7-1.1c0.1-0.1,0.2-0.2,0.3-0.1c0.1,0.1,0.2,0.2,0.1,0.3c-0.2,0.4-0.4,0.8-0.7,1.2
		C87.6,61.2,87.5,61.2,87.4,61.1L87.4,61.1z M89.2,57.6L89.2,57.6c-0.1,0-0.2-0.2-0.2-0.3l0,0c0.1-0.4,0.3-0.8,0.4-1.3
		c0-0.1,0.2-0.2,0.3-0.2c0.1,0,0.2,0.2,0.2,0.3c-0.1,0.5-0.2,0.9-0.4,1.3C89.5,57.6,89.3,57.6,89.2,57.6
		C89.2,57.5,89.2,57.5,89.2,57.6L89.2,57.6z M90.1,53.6L90.1,53.6c-0.1,0-0.2-0.1-0.2-0.2l0,0c0-0.4,0-0.9,0.1-1.3
		c0-0.1,0.1-0.2,0.3-0.2l0,0c0.1,0,0.2,0.1,0.2,0.3c0,0.4,0,0.9-0.1,1.4C90.3,53.5,90.2,53.6,90.1,53.6L90.1,53.6z"/>
	<path class="st0" d="M17.4,83.2L17.4,83.2c-0.5-0.1-0.9-0.2-1.4-0.4c-0.1-0.1-0.2-0.2-0.1-0.3c0.1-0.1,0.2-0.2,0.3-0.1l0,0
		c0.4,0.2,0.8,0.3,1.2,0.4c0.1,0,0.2,0.1,0.2,0.2l0,0C17.6,83.1,17.5,83.2,17.4,83.2L17.4,83.2z M20,82.9c-0.1,0-0.2-0.1-0.2-0.2
		s0-0.3,0.2-0.3l0,0h0.2c0.3-0.1,0.7-0.3,1-0.5c0.1-0.1,0.3-0.1,0.4,0l0,0c0.1,0.1,0.1,0.3,0,0.4c-0.3,0.2-0.7,0.4-1.1,0.5h-0.2
		L20,82.9z M14.1,81c-0.1,0-0.2,0-0.2-0.1c-0.3-0.4-0.5-0.8-0.6-1.3c0-0.1,0-0.3,0.1-0.3l0,0c0.1,0,0.3,0,0.3,0.2
		c0.1,0.4,0.3,0.8,0.6,1.1c0.1,0.1,0.1,0.3,0,0.4L14.1,81z M22.9,80.3h-0.1c-0.1-0.1-0.2-0.2-0.1-0.3c0.2-0.4,0.3-0.8,0.5-1.2
		c0-0.1,0.2-0.2,0.3-0.2c0.1,0,0.2,0.2,0.2,0.3l0,0c-0.1,0.4-0.3,0.9-0.5,1.3C23,80.2,22.9,80.2,22.9,80.3L22.9,80.3z M23.9,76.4
		L23.9,76.4c-0.1,0-0.2-0.1-0.2-0.3l0,0c0-0.4,0.1-0.9,0.1-1.3c0-0.1,0.1-0.2,0.3-0.2l0,0c0.1,0,0.2,0.1,0.2,0.3
		c0,0.5,0,0.9-0.1,1.4C24.1,76.2,24,76.3,23.9,76.4L23.9,76.4z M24.1,72.3c-0.1,0-0.2-0.1-0.2-0.2c0-0.4,0-0.9,0-1.4
		c0-0.1,0.1-0.2,0.2-0.2l0,0c0.1,0,0.3,0.1,0.3,0.2l0,0c0,0.5,0,0.9,0,1.4C24.3,72.2,24.2,72.3,24.1,72.3L24.1,72.3z"/>
	<path class="st0" d="M44.1,87.4c0.1-0.2,0.2-0.4,0.2-0.6c0-0.6-0.4-1-1-1l0,0c-0.2-0.7-0.8-1.3-1.6-1.3c-0.5,0-1,0.2-1.3,0.7
		c-0.5-0.1-1,0-1.4,0.3c-1.8-0.3-2.9,0-3.3,0.8l0,0l-1,2.1c-0.1,0.2-0.1,0.4-0.1,0.6c-1-0.2-1.9-0.3-2.9-0.3c-3.2,0-6.6,0.9-6.6,2.6
		v2.3c0,1.8,3.4,2.6,6.6,2.6s6.6-0.9,6.6-2.6v-0.7c0.4,0.2,0.8,0.5,1.3,0.7c1.4,0.7,2.9,1.1,4.4,1.3h0.6c1.1,0,1.8-0.3,2.1-0.9
		l1-2.1C48.4,90.6,46.4,88.7,44.1,87.4z M40.3,85.9c0.2,0.1,0.4,0,0.4-0.1l0,0c0.2-0.3,0.5-0.5,0.9-0.6c0.5,0,1,0.4,1,1l0,0
		c0,0.1,0.1,0.2,0.2,0.3c0.1,0.1,0.2,0.1,0.3,0h0.1c0.2,0,0.3,0.1,0.3,0.3l0,0c0,0.1-0.1,0.3-0.2,0.3l0,0c-0.1,0-0.3-0.1-0.3-0.2
		s-0.1-0.2-0.2-0.2c-0.1,0-0.2,0-0.3,0.1c-0.3,0.3-0.8,0.4-1.2,0.3c-0.2-0.1-0.4,0-0.4,0.2c-0.2,0.3-0.5,0.6-0.9,0.6
		c-0.5,0-1-0.4-1-1l0,0c0-0.5,0.4-1,1-1C40.1,85.8,40.2,85.8,40.3,85.9L40.3,85.9z M37.7,86h0.7c-0.1,0.2-0.2,0.5-0.2,0.7
		c0,0.9,0.7,1.7,1.6,1.7c0.5,0,1.1-0.2,1.4-0.7c0.5,0.1,1,0,1.4-0.3c0.2,0.2,0.4,0.3,0.7,0.3h0.1c2.7,1.5,4,3.1,3.7,3.8
		c-0.3,0.7-3.1,0.7-6.2-0.8c-3.2-1.5-5-3.5-4.6-4.3C36.5,86.2,37,86,37.7,86L37.7,86z M31.6,89.3c1,0,2.1,0.1,3.1,0.3
		c0.6,1,1.4,1.9,2.4,2.5c-1.6,0.9-3.5,1.3-5.3,1.2c-3.6,0-6-1-6-2C25.8,90.3,28.2,89.3,31.6,89.3L31.6,89.3z M31.6,95.5
		c-3.6,0-6-1-6-2v-1.1c1.8,1,3.9,1.5,6,1.4c2.1,0.1,4.2-0.4,6-1.4v1.1C37.7,94.5,35.2,95.5,31.6,95.5L31.6,95.5z M46.1,93.7
		c-0.2,0.4-0.9,0.6-2,0.5c-1.5-0.2-2.9-0.6-4.2-1.3c-3.1-1.5-4.9-3.5-4.5-4.4l0.5-1c1.2,1.7,2.9,3,4.8,3.8c1.6,0.8,3.3,1.3,5.1,1.4
		c0.3,0,0.6,0,0.9-0.1L46.1,93.7z"/>
	<circle class="st0" cx="32.1" cy="78.4" r="0.4"/>
	<circle class="st0" cx="23.3" cy="93.9" r="0.4"/>
	<circle class="st0" cx="16.4" cy="94.9" r="0.4"/>
	<path class="st0" d="M63.2,91.5L62,91c-0.2-0.1-0.4,0-0.4,0.2c-0.1,0.2,0,0.4,0.1,0.4l0,0l1.2,0.6H63c0.2,0,0.3-0.2,0.3-0.3
		C63.4,91.7,63.4,91.6,63.2,91.5L63.2,91.5z"/>
	<path class="st0" d="M50.4,93.1c-0.2,0-0.4,0.2-0.4,0.4c0,0.2,0.2,0.4,0.4,0.4s0.4-0.2,0.4-0.4l0,0C50.7,93.3,50.6,93.1,50.4,93.1z
		"/>
	<path class="st0" d="M59.4,91.5c-0.2,0-0.4,0.2-0.4,0.4c0,0.2,0.2,0.4,0.4,0.4s0.4-0.2,0.4-0.4l0,0C59.7,91.7,59.6,91.5,59.4,91.5z
		"/>
	<path class="st0" d="M65.9,92.1c0-0.7-0.6-1.2-1.3-1.2l0,0c-0.1-0.3-0.2-0.5-0.4-0.7l0.4-0.7c0.1-0.2,0-0.4-0.1-0.4l0,0
		c-0.2-0.1-0.4,0-0.4,0.1l-0.3,0.6c-0.1-0.1-0.3-0.2-0.4-0.2c-0.4-0.7-1.1-1.1-1.9-1.1c-0.6,0-1.2,0.2-1.6,0.7h-0.1l0.7-1.8
		c0.1-0.2,0-0.4-0.1-0.4l0,0c-0.2-0.1-0.4,0-0.4,0.2l-0.8,2c-0.2,0-0.3,0-0.5,0c-0.7-1.2-2.2-1.7-3.4-1c-0.4,0.2-0.8,0.6-1,1
		l-1.6-1.8c-0.1-0.1-0.3-0.1-0.5,0c-0.1,0.1-0.1,0.3,0,0.5l1.8,2.2l0,0c-0.5,0.1-0.9,0.3-1.2,0.6c0-0.2-0.2-0.3-0.3-0.3
		c-0.2,0-0.4,0.2-0.4,0.4c0,0.2,0.2,0.4,0.4,0.4l0,0l0,0c-0.6,1-0.3,2.4,0.7,3c0.3,0.2,0.7,0.3,1.1,0.3c0.3,0,0.6-0.1,0.9-0.2
		c0.9,0.4,2,0.2,2.6-0.6c0.5,0.4,1,0.6,1.6,0.6c0.8,0,1.5-0.4,2-0.9c0.4,0.4,0.9,0.5,1.4,0.5s1-0.2,1.4-0.5c0.2,0.1,0.5,0.2,0.7,0.2
		c0.4,0,0.7-0.2,0.9-0.4h0.1c0.2,0,0.5-0.2,0.5-0.4l0,0C66.1,92.3,66,92.1,65.9,92.1z M64.6,92.7c-0.2,0-0.4-0.1-0.5-0.2
		s-0.2-0.1-0.2-0.1c-0.1,0-0.2,0-0.3,0.1c-0.3,0.3-0.7,0.5-1.1,0.5c-0.5,0-0.9-0.2-1.2-0.6c-0.1-0.1-0.2-0.1-0.3-0.1
		s-0.2,0.1-0.3,0.2c-0.3,0.6-0.9,1-1.6,1c-0.5,0-1.1-0.2-1.4-0.7c-0.1-0.1-0.2-0.1-0.3-0.1s-0.2,0.1-0.2,0.2
		c-0.3,0.5-0.8,0.8-1.3,0.8c-0.3,0-0.5-0.1-0.8-0.2c-0.1,0-0.1,0-0.2,0c-0.1,0-0.1,0-0.2,0c-0.2,0.1-0.5,0.2-0.8,0.2
		c-0.8,0-1.5-0.7-1.5-1.5s0.7-1.5,1.5-1.5l0,0c0.1,0,0.2,0,0.2-0.1l0.5,0.6c-0.2,0.2-0.3,0.6-0.3,0.9c0,0.2,0.2,0.3,0.3,0.3
		c0.2,0,0.3-0.2,0.3-0.3l0,0c0-0.4,0.3-0.7,0.7-0.7l0,0c0.2,0,0.4,0.1,0.5,0.2s0.3,0.1,0.5,0l0,0c0.1-0.1,0.1-0.3,0-0.4l0,0
		c-0.3-0.3-0.6-0.4-1-0.4c-0.2,0-0.3,0-0.5,0l-0.7-0.9c0.2-0.8,1-1.3,1.8-1.3s1.5,0.4,1.8,1.2c0,0.1,0.1,0.2,0.2,0.2
		c0.1,0,0.2,0,0.3,0c0.4-0.2,0.9-0.2,1.4,0c0.1,0,0.3,0,0.4-0.1c0.3-0.4,0.7-0.6,1.2-0.6c0.6,0,1.1,0.3,1.4,0.9
		c0,0.1,0.1,0.2,0.2,0.2c0.6,0.2,1,0.7,1.1,1.2c0,0.1,0.1,0.2,0.1,0.2c0.1,0,0.2,0,0.3,0h0.2c0.3,0,0.6,0.3,0.6,0.6S65.1,93,64.8,93
		L64.6,92.7z"/>
	<path class="st1" d="M80.9,55.4l-10.5-29c-0.7-2.4-2.6-4.3-5-4.9L24.5,11.1c-3.7-1-7.5,1.3-8.4,5l0,0L5.6,57
		c-0.9,3.7,1.3,7.4,5,8.4l15,3.8c-0.3,2.1,1.1,4.1,3.1,4.6l1.4,0.4c0.3,0.1,0.7,0.1,1,0.1c1.7,0,3.3-1.1,3.9-2.7l1.7,0.4
		c0.3,2.3,1.1,3.8,2.1,3.9l2.3,0.2l0,0c0.8,0,1.6-0.9,2.2-2.4l8.1,2.1c0.6,0.1,1.2,0.2,1.8,0.2c3.2,0,5.9-2.1,6.7-5.2l2.9-11.3
		L74,62.9l0,0c0.5,0.1,1,0.2,1.5,0.2c1,0,1.9-0.2,2.8-0.7C80.7,61,81.8,58.1,80.9,55.4z M32.8,69.6L32.8,69.6l-0.2,0.8
		c-0.1,0.4-0.3,0.7-0.7,0.9c-0.3,0.2-0.8,0.3-1.2,0.2l-1.4-0.4c-0.4-0.1-0.7-0.3-0.9-0.7c-0.2-0.3-0.3-0.8-0.2-1.2l0.2-0.8l1.5-6
		l4.4,1.1L32.8,69.6z M38.9,75.3c-0.6,0-1.2-1.1-1.5-3.1l1.6,0.4c0.1,1,0.4,1.9,0.9,2.7H38.9z M41.2,75.4c-0.5,0-1.1-0.9-1.4-2.6
		l3,0.8C42.3,74.9,41.7,75.5,41.2,75.4L41.2,75.4z M57.3,70.1c-0.6,2.3-2.9,3.6-5.1,3l0,0l-16.4-4.2l1.5-6c0.2-0.7-0.2-1.4-0.9-1.6
		l0,0l-7-1.8c-0.3-0.1-0.7,0-1,0.2s-0.5,0.5-0.6,0.8l-1.5,6l-14.9-3.8c-1.1-0.3-2-1-2.6-1.9c-0.5-0.9-0.7-2-0.4-3.1l10.4-40.9
		c0.3-1.1,1-2,1.9-2.6c1-0.6,2.1-0.7,3.2-0.5l40.9,10.4c2.3,0.6,3.6,2.9,3.1,5.1L57.3,70.1z M77,60c-0.7,0.4-1.5,0.5-2.3,0.3
		l-11.2-3.5l1.8-6.8l8.6,2.6H74c0.1,0,0.3-0.1,0.3-0.2c0-0.2-0.1-0.4-0.2-0.4l-8.6-2.6l1.5-5.6l4.5,1.4l0,0c0.1,0,0.3-0.1,0.3-0.2
		c0-0.2-0.1-0.4-0.2-0.4L67,43.1l2.7-10.6l8.7,23.7C78.9,57.7,78.3,59.3,77,60z"/>
</g>
</svg>
